<?xml version="1.0" encoding="UTF-8" standalone="no"?>
<svg width="630px" height="482px" viewBox="0 0 630 482" version="1.1" xmlns="http://www.w3.org/2000/svg" xmlns:xlink="http://www.w3.org/1999/xlink" xmlns:sketch="http://www.bohemiancoding.com/sketch/ns">
    <title>donut</title>
    <description>Created with Sketch (http://www.bohemiancoding.com/sketch)</description>
    <defs>
        <path d="M349,560 C459.456955,560 549,470.456955 549,360 C549,249.543045 459.456955,160 349,160 C238.543045,160 149,249.543045 149,360 C149,470.456955 238.543045,560 349,560 Z M348,489 C419.797021,489 478,430.797021 478,359 C478,287.202979 419.797021,229 348,229 C276.202979,229 218,287.202979 218,359 C218,430.797021 276.202979,489 348,489 Z" id="path-1"></path>
    </defs>
    <g id="Page-1" stroke="none" stroke-width="1" fill="none" fill-rule="evenodd" sketch:type="MSPage">
        <g id="Chart" sketch:type="MSLayerGroup" transform="translate(-29.000000, -121.000000)">
            <mask id="mask-2" sketch:name="Base" fill="white">
                <use xlink:href="#path-1"></use>
            </mask>
            <use id="Base" fill="#1F77B4" sketch:type="MSShapeGroup" xlink:href="#path-1"></use>
            <g id="Segments" sketch:type="MSShapeGroup">
                <path d="M225.032219,316.713727 L160.030454,294.331824 C152.883434,314.90096 149,336.996967 149,360 C149,470.456955 238.543045,560 349,560 C436.853828,560 511.477332,503.35428 538.339334,424.594018 L538.339334,424.594018 L470.93397,401.38449 C453.358388,452.371187 404.956755,489 348,489 C276.202979,489 218,430.797021 218,359 C218,344.1963 220.474417,329.970531 225.032219,316.713727 Z" id="Oval-1" fill="#FF7F0E"></path>
                <path d="M274.191168,251.970311 L234.835117,195.764045 C182.953164,231.896255 149,291.983032 149,360 C149,470.456955 238.543045,560 349,560 C391.930239,560 431.701288,546.473908 464.283943,523.450929 L464.283943,523.450929 L423.329975,464.962601 C402.077966,480.098116 376.078557,489 348,489 C276.202979,489 218,430.797021 218,359 C218,314.615132 240.243454,275.425504 274.191168,251.970311 Z" id="Oval-1-copy" fill="#2CA02C"></path>
                <path d="M317.177041,232.675883 L300.531246,165.913246 C213.493997,187.578279 149,266.257445 149,360 C149,470.456955 238.543045,560 349,560 C365.662014,560 381.848141,557.962485 397.322815,554.123022 L397.322815,554.123022 L380.090765,485.009048 C369.826457,487.615106 359.074958,489 348,489 C276.202979,489 218,430.797021 218,359 C218,297.822842 260.258196,246.515621 317.177041,232.675883 Z M544.636192,318.251607 C543.665922,313.682517 542.539637,309.171095 541.263176,304.723179 L544.636192,318.251607 L544.636192,318.251607 Z" id="Oval-1-copy-2" fill="#D62728"></path>
                <path d="M276.089922,467.317031 L236.790589,525.580689 C183.807967,489.605841 149,428.867841 149,360 C149,249.543045 238.543045,160 349,160 L349,160 L349,229.003766 C348.666963,229.001257 348.333628,229 348,229 C276.202979,229 218,287.202979 218,359 C218,404.207152 241.075263,444.024785 276.089922,467.317031 Z" id="Oval-1-copy-3" fill="#9467BD"></path>
                <path d="M236.2642,425.485504 L175.938712,460.314441 C158.808994,430.826155 149,396.558585 149,360 C149,249.543045 238.543045,160 349,160 L349,160 L349,229.003766 C348.666963,229.001257 348.333628,229 348,229 C276.202979,229 218,287.202979 218,359 C218,383.294442 224.664172,406.032382 236.2642,425.485504 Z" id="Oval-1-copy-4" fill="#8C564B"></path>
                <path d="M224.970412,316.893931 L159.968013,294.51181 C187.088266,216.217339 261.478997,160 349,160 L349,229.003766 C348.666963,229.001257 348.333628,229 348,229 C290.939624,229 242.465528,265.762211 224.970412,316.893931 Z M271.62165,544.481377 C279.620175,547.840262 287.883113,550.694141 296.370564,553.003114 L271.621619,544.481366 L271.62165,544.481377 Z" id="Oval-1-copy-5" fill="#E377C2"></path>
                <path d="M285.437789,245.016357 L252.153632,184.970148 C280.847349,169.059594 313.865683,160 349,160 L349,160 L349,229.003766 C348.666963,229.001257 348.333628,229 348,229 C325.320863,229 303.99813,234.807449 285.437789,245.016357 Z M169.912335,449.135988 C172.503945,454.332863 175.315105,459.401074 178.333667,464.328473 L169.912335,449.135988 L169.912335,449.135988 Z" id="Oval-1-copy-6" fill="#7F7F7F"></path>
            </g>
        </g>
        <g id="Labels" sketch:type="MSLayerGroup" transform="translate(-69.000000, -2.000000)">
            <text id="Writing-code" sketch:type="MSTextLayer" font-family="Helvetica" font-size="16" font-weight="normal" fill="#000000">
                <tspan x="532" y="56">Writing code</tspan>
            </text>
            <text id="Eating" sketch:type="MSTextLayer" font-family="Helvetica" font-size="16" font-weight="normal" fill="#000000">
                <tspan x="583" y="387">Eating</tspan>
            </text>
            <text id="Making-coffee" sketch:type="MSTextLayer" font-family="Helvetica" font-size="16" font-weight="normal" fill="#000000">
                <tspan x="489" y="466">Making coffee</tspan>
            </text>
            <text id="Planning" sketch:type="MSTextLayer" font-family="Helvetica" font-size="16" font-weight="normal" fill="#000000">
                <tspan x="279" y="480">Planning</tspan>
            </text>
            <text id="Commuting" sketch:type="MSTextLayer" font-family="Helvetica" font-size="16" font-weight="normal" fill="#000000">
                <tspan x="132" y="407">Commuting</tspan>
            </text>
            <text id="Responding" sketch:type="MSTextLayer" font-family="Helvetica" font-size="16" font-weight="normal" sketch:alignment="right" fill="#000000">
                <tspan x="68.6015625" y="268">Responding</tspan>
                <tspan x="89.9765625" y="287">to emails</tspan>
            </text>
            <text id="Debugging" sketch:type="MSTextLayer" font-family="Helvetica" font-size="16" font-weight="normal" fill="#000000">
                <tspan x="121" y="101">Debugging</tspan>
            </text>
            <text id="Changing-nappies" sketch:type="MSTextLayer" font-family="Helvetica" font-size="16" font-weight="normal" fill="#000000">
                <tspan x="194" y="15">Changing nappies</tspan>
            </text>
            <path d="M528.271484,52.1777344 C528.271484,52.1777344 514.218749,59.083984 505.624023,75.4150391" id="Path-51" stroke="#979797" sketch:type="MSShapeGroup"></path>
            <path d="M578.381836,380.499023 C578.381836,380.499023 567.248047,377.829102 552.532227,361.442383" id="Path-52" stroke="#979797" sketch:type="MSShapeGroup"></path>
            <path d="M483.84668,455.87207 C483.84668,455.87207 474.03711,444.795898 470.932617,427.516602" id="Path-53" stroke="#979797" sketch:type="MSShapeGroup"></path>
            <path d="M346.564453,472.113281 C346.564453,472.113281 356.701172,461.99707 359.739258,443.183594" id="Path-54" stroke="#979797" sketch:type="MSShapeGroup"></path>
            <path d="M218.777344,401.378906 C218.777344,401.378906 231.710939,397.723634 243.041992,385.40625" id="Path-55" stroke="#979797" sketch:type="MSShapeGroup"></path>
            <path d="M160.387695,272.176758 C160.387695,272.176758 169.388672,274.173827 184.066406,270.419922" id="Path-56" stroke="#979797" sketch:type="MSShapeGroup"></path>
            <path d="M204.9375,97.6396484 C204.9375,97.6396484 218.775392,100.038085 229.040039,113.744141" id="Path-57" stroke="#979797" sketch:type="MSShapeGroup"></path>
            <path d="M327.802734,14.6748047 C327.802734,14.6748047 337.189454,23.595703 339.001953,41.3154297" id="Path-58" stroke="#979797" sketch:type="MSShapeGroup"></path>
        </g>
        <g id="Values" sketch:type="MSLayerGroup" transform="translate(138.000000, 66.000000)" font-weight="normal" font-family="Helvetica" fill="#FFFFFF" font-size="16" sketch:alignment="middle">
            <text id="8%" sketch:type="MSTextLayer">
                <tspan x="126.5" y="18">8%</tspan>
            </text>
            <text id="11%" sketch:type="MSTextLayer">
                <tspan x="40" y="72">11%</tspan>
            </text>
            <text id="14%" sketch:type="MSTextLayer">
                <tspan x="3" y="192">14%</tspan>
            </text>
            <text id="7%" sketch:type="MSTextLayer">
                <tspan x="50.5" y="291">7%</tspan>
            </text>
            <text id="14%" sketch:type="MSTextLayer">
                <tspan x="137" y="338">14%</tspan>
            </text>
            <text id="6%" sketch:type="MSTextLayer">
                <tspan x="239.5" y="329">6%</tspan>
            </text>
            <text id="10%" sketch:type="MSTextLayer">
                <tspan x="299" y="277">10%</tspan>
            </text>
            <text id="30%" sketch:type="MSTextLayer">
                <tspan x="298" y="76">30%</tspan>
            </text>
        </g>
    </g>
</svg>