<?xml version="1.0" encoding="UTF-8" standalone="no"?>
<svg width="618px" height="457px" viewBox="0 0 618 457" version="1.1" xmlns="http://www.w3.org/2000/svg" xmlns:xlink="http://www.w3.org/1999/xlink" xmlns:sketch="http://www.bohemiancoding.com/sketch/ns">
    <title>donut</title>
    <description>Created with Sketch (http://www.bohemiancoding.com/sketch)</description>
    <defs>
        <path d="M432,851 C542.456955,851 632,761.456955 632,651 C632,540.543045 542.456955,451 432,451 C321.543045,451 232,540.543045 232,651 C232,761.456955 321.543045,851 432,851 Z M431,780 C502.797021,780 561,721.797021 561,650 C561,578.202979 502.797021,520 431,520 C359.202979,520 301,578.202979 301,650 C301,721.797021 359.202979,780 431,780 Z" id="path-1"></path>
        <path d="M534.275154,459.781888 C541.227202,439.464809 545,417.672997 545,395 C545,284.543045 455.456955,195 345,195 L345,195 L345,264.003766 C416.336683,264.541212 474,322.536607 474,394 C474,408.91016 471.489866,423.234047 466.869127,436.572132 L534.275154,459.781888 Z M173.976034,498.742429 C155.588972,468.495396 145,432.984292 145,395 L193.126228,443.126228 L173.976034,498.742429 Z M267.734387,579.528679 C275.660771,582.851534 283.846473,585.678576 292.252701,587.971011 L267.734354,579.528667 Z" id="path-3"></path>
        <path d="M466.93397,328.38449 L534.339334,351.594018 L534.339334,351.594018 C520.542493,392.046803 494.145943,426.665668 459.828491,450.771805 L459.828491,450.771805 L419.890438,391.561206 C441.475,376.016204 458.09912,354.014355 466.93397,328.38449 Z M203.365046,428.207442 C185.455183,410.243695 170.940624,388.89294 160.865574,365.199383 L203.365055,428.207455 L203.365046,428.207442 Z" id="path-5"></path>
        <path d="M376.090765,412.009048 L393.322815,481.123022 C377.848141,484.962485 361.662014,487 345,487 C303.86605,487 265.632447,474.582146 233.843491,453.290738 L233.843491,453.290738 L272.12592,394.340968 C292.713596,408.026324 317.425622,416 344,416 C355.074958,416 365.826457,414.615106 376.090765,412.009048 Z M540.636192,245.251607 C539.665922,240.682517 538.539637,236.171095 537.263176,231.723179 L540.636192,245.251607 L540.636192,245.251607 Z" id="path-7"></path>
        <path d="M272.185872,394.380796 L232.885917,452.645376 C208.072173,435.81784 187.239394,413.561036 172.094132,387.581514 L172.094132,387.581514 L232.422793,352.750745 C242.413564,369.414941 256.031748,383.655449 272.185872,394.380796 Z M259.811411,105.997812 C249.771134,110.731524 240.18836,116.276037 231.147528,122.546912 L259.811411,105.997812 L259.811411,105.997812 Z M504.123953,408.176781 C508.830206,402.006186 513.185699,395.553688 517.160682,388.849035 L504.123953,408.176781 L504.123953,408.176781 Z" id="path-9"></path>
        <path d="M232.2642,352.485504 L171.938712,387.314441 C154.808994,357.826155 145,323.558585 145,287 C145,264.017432 148.876527,241.940277 156.011387,221.386727 L156.011387,221.386727 L221.408279,242.635465 C216.610685,256.198035 214,270.794138 214,286 C214,310.294442 220.664172,333.032382 232.2642,352.485504 Z" id="path-11"></path>
        <path d="M220.970412,243.893931 L155.968013,221.51181 C172.144206,174.812154 205.137657,135.966804 247.703773,112.220352 L247.703773,112.220352 L282.037692,171.688443 C253.610355,187.129997 231.586741,212.866346 220.970412,243.893931 Z M267.62165,471.481377 C275.620175,474.840262 283.883113,477.694141 292.370564,480.003114 L267.621619,471.481366 L267.62165,471.481377 Z" id="path-13"></path>
        <path d="M282.787801,171.284175 L248.448592,111.80692 C277.073534,95.9976467 309.98601,87 345,87 L345,87 L345,156.003766 C344.666963,156.001257 344.333628,156 344,156 C321.868767,156 301.029191,161.530235 282.787801,171.284175 Z M155.254093,350.389314 C163.846397,376.120699 177.526332,399.523706 195.099981,419.404417 L155.254093,350.389314 L155.254093,350.389314 Z" id="path-15"></path>
    </defs>
    <g id="Page-1" stroke="none" stroke-width="1" fill="none" fill-rule="evenodd" sketch:type="MSPage">
        <g id="Chart-(deuteranomaly)" sketch:type="MSLayerGroup" transform="translate(-230.000000, -395.000000)">
            <mask id="mask-2" sketch:name="Base" fill="white">
                <use xlink:href="#path-1"></use>
            </mask>
            <use id="Base" fill="#3370B7" sketch:type="MSShapeGroup" xlink:href="#path-1"></use>
            <g id="Segments" transform="translate(83.000000, 291.000000)" sketch:type="MSShapeGroup">
                <path d="M225.032219,316.713727 L160.030454,294.331824 C152.883434,314.90096 149,336.996967 149,360 C149,470.456955 238.543045,560 349,560 C436.853828,560 511.477332,503.35428 538.339334,424.594018 L538.339334,424.594018 L470.93397,401.38449 C453.358388,452.371187 404.956755,489 348,489 C276.202979,489 218,430.797021 218,359 C218,344.1963 220.474417,329.970531 225.032219,316.713727 Z" id="Oval-1" fill="#DB8A2C"></path>
                <path d="M274.191168,251.970311 L234.835117,195.764045 C182.953164,231.896255 149,291.983032 149,360 C149,470.456955 238.543045,560 349,560 C391.930239,560 431.701288,546.473908 464.283943,523.450929 L464.283943,523.450929 L423.329975,464.962601 C402.077966,480.098116 376.078557,489 348,489 C276.202979,489 218,430.797021 218,359 C218,314.615132 240.243454,275.425504 274.191168,251.970311 Z" id="Oval-1-copy" fill="#969533"></path>
                <path d="M317.177041,232.675883 L300.531246,165.913246 C213.493997,187.578279 149,266.257445 149,360 C149,470.456955 238.543045,560 349,560 C365.662014,560 381.848141,557.962485 397.322815,554.123022 L397.322815,554.123022 L380.090765,485.009048 C369.826457,487.615106 359.074958,489 348,489 C276.202979,489 218,430.797021 218,359 C218,297.822842 260.258196,246.515621 317.177041,232.675883 Z M544.636192,318.251607 C543.665922,313.682517 542.539637,309.171095 541.263176,304.723179 L544.636192,318.251607 L544.636192,318.251607 Z" id="Oval-1-copy-2" fill="#B55C23"></path>
                <path d="M276.089922,467.317031 L236.790589,525.580689 C183.807967,489.605841 149,428.867841 149,360 C149,249.543045 238.543045,160 349,160 L349,160 L349,229.003766 C348.666963,229.001257 348.333628,229 348,229 C276.202979,229 218,287.202979 218,359 C218,404.207152 241.075263,444.024785 276.089922,467.317031 Z" id="Oval-1-copy-3" fill="#716BB9"></path>
                <path d="M236.2642,425.485504 L175.938712,460.314441 C158.808994,430.826155 149,396.558585 149,360 C149,249.543045 238.543045,160 349,160 L349,160 L349,229.003766 C348.666963,229.001257 348.333628,229 348,229 C276.202979,229 218,287.202979 218,359 C218,383.294442 224.664172,406.032382 236.2642,425.485504 Z" id="Oval-1-copy-4" fill="#805A45"></path>
                <path d="M224.970412,316.893931 L159.968013,294.51181 C187.088266,216.217339 261.478997,160 349,160 L349,229.003766 C348.666963,229.001257 348.333628,229 348,229 C290.939624,229 242.465528,265.762211 224.970412,316.893931 Z M271.62165,544.481377 C279.620175,547.840262 287.883113,550.694141 296.370564,553.003114 L271.621619,544.481366 L271.62165,544.481377 Z" id="Oval-1-copy-5" fill="#BA84BB"></path>
                <path d="M285.437789,245.016357 L252.153632,184.970148 C280.847349,169.059594 313.865683,160 349,160 L349,160 L349,229.003766 C348.666963,229.001257 348.333628,229 348,229 C325.320863,229 303.99813,234.807449 285.437789,245.016357 Z M169.912335,449.135988 C172.503945,454.332863 175.315105,459.401074 178.333667,464.328473 L169.912335,449.135988 L169.912335,449.135988 Z" id="Oval-1-copy-6" fill="#867C7F"></path>
            </g>
            <g id="Legend" transform="translate(673.000000, 451.000000)">
                <text id="Writing-code" sketch:type="MSTextLayer" font-family="Helvetica" font-size="16" font-weight="normal" fill="#000000">
                    <tspan x="22" y="15">Writing code</tspan>
                </text>
                <rect id="Key" fill="#3370B7" sketch:type="MSShapeGroup" x="0" y="0" width="18" height="18" rx="2"></rect>
                <text id="Eating" sketch:type="MSTextLayer" font-family="Helvetica" font-size="16" font-weight="normal" fill="#000000">
                    <tspan x="22" y="45">Eating</tspan>
                </text>
                <rect id="Key" fill="#DB8A2C" sketch:type="MSShapeGroup" x="0" y="30" width="18" height="18" rx="2"></rect>
                <text id="Making-coffee" sketch:type="MSTextLayer" font-family="Helvetica" font-size="16" font-weight="normal" fill="#000000">
                    <tspan x="22" y="75">Making coffee</tspan>
                </text>
                <rect id="Key" fill="#969533" sketch:type="MSShapeGroup" x="0" y="60" width="18" height="18" rx="2"></rect>
                <text id="Planning" sketch:type="MSTextLayer" font-family="Helvetica" font-size="16" font-weight="normal" fill="#000000">
                    <tspan x="22" y="105">Planning</tspan>
                </text>
                <rect id="Key" fill="#B55C23" sketch:type="MSShapeGroup" x="0" y="90" width="18" height="18" rx="2"></rect>
                <text id="Commuting" sketch:type="MSTextLayer" font-family="Helvetica" font-size="16" font-weight="normal" fill="#000000">
                    <tspan x="22" y="135">Commuting</tspan>
                </text>
                <rect id="Key" fill="#716BB9" sketch:type="MSShapeGroup" x="0" y="120" width="18" height="18" rx="2"></rect>
                <text id="Responding-to-emails" sketch:type="MSTextLayer" font-family="Helvetica" font-size="16" font-weight="normal" fill="#000000">
                    <tspan x="22" y="165">Responding to emails</tspan>
                </text>
                <rect id="Key" fill="#805A45" sketch:type="MSShapeGroup" x="0" y="150" width="18" height="18" rx="2"></rect>
                <text id="Debugging" sketch:type="MSTextLayer" font-family="Helvetica" font-size="16" font-weight="normal" fill="#000000">
                    <tspan x="22" y="195">Debugging</tspan>
                </text>
                <rect id="Key" fill="#BA84BB" sketch:type="MSShapeGroup" x="0" y="180" width="18" height="18" rx="2"></rect>
                <text id="Changing-nappies" sketch:type="MSTextLayer" font-family="Helvetica" font-size="16" font-weight="normal" fill="#000000">
                    <tspan x="22" y="225">Changing nappies</tspan>
                </text>
                <rect id="Key" fill="#867C7F" sketch:type="MSShapeGroup" x="0" y="210" width="18" height="18" rx="2"></rect>
            </g>
            <text id="5%-male" sketch:type="MSTextLayer" font-family="Helvetica Neue" font-size="30" font-weight="260" sketch:alignment="middle" fill="#333333">
                <tspan x="375.815" y="644">5% male</tspan>
                <tspan x="343.295" y="680">0.35% female</tspan>
            </text>
            <text id="Deuteranomaly-(M-con" sketch:type="MSTextLayer" font-family="Helvetica Neue" font-size="26" font-weight="260" sketch:alignment="middle" fill="#333333">
                <tspan x="256.5" y="415">Deuteranomaly (M-cone defect)</tspan>
            </text>
        </g>
        <g id="Patterned-Overlay" sketch:type="MSLayerGroup" transform="translate(-143.000000, -139.000000)">
            <mask id="mask-4" sketch:name="Base copy" fill="white">
                <use xlink:href="#path-3"></use>
            </mask>
            <use id="Base-copy" opacity="0" fill="#1F77B4" sketch:type="MSShapeGroup" xlink:href="#path-3"></use>
            <path d="M390,205 C392.761424,205 395,202.761424 395,200 C395,197.238576 392.761424,195 390,195 C387.238576,195 385,197.238576 385,200 C385,202.761424 387.238576,205 390,205 Z M370,205 C372.761424,205 375,202.761424 375,200 C375,197.238576 372.761424,195 370,195 C367.238576,195 365,197.238576 365,200 C365,202.761424 367.238576,205 370,205 Z M350,205 C352.761424,205 355,202.761424 355,200 C355,197.238576 352.761424,195 350,195 C347.238576,195 345,197.238576 345,200 C345,202.761424 347.238576,205 350,205 Z M410,225 C412.761424,225 415,222.761424 415,220 C415,217.238576 412.761424,215 410,215 C407.238576,215 405,217.238576 405,220 C405,222.761424 407.238576,225 410,225 Z M390,225 C392.761424,225 395,222.761424 395,220 C395,217.238576 392.761424,215 390,215 C387.238576,215 385,217.238576 385,220 C385,222.761424 387.238576,225 390,225 Z M370,225 C372.761424,225 375,222.761424 375,220 C375,217.238576 372.761424,215 370,215 C367.238576,215 365,217.238576 365,220 C365,222.761424 367.238576,225 370,225 Z M350,225 C352.761424,225 355,222.761424 355,220 C355,217.238576 352.761424,215 350,215 C347.238576,215 345,217.238576 345,220 C345,222.761424 347.238576,225 350,225 Z M450,225 C452.761424,225 455,222.761424 455,220 C455,217.238576 452.761424,215 450,215 C447.238576,215 445,217.238576 445,220 C445,222.761424 447.238576,225 450,225 Z M430,225 C432.761424,225 435,222.761424 435,220 C435,217.238576 432.761424,215 430,215 C427.238576,215 425,217.238576 425,220 C425,222.761424 427.238576,225 430,225 Z M410,245 C412.761424,245 415,242.761424 415,240 C415,237.238576 412.761424,235 410,235 C407.238576,235 405,237.238576 405,240 C405,242.761424 407.238576,245 410,245 Z M390,245 C392.761424,245 395,242.761424 395,240 C395,237.238576 392.761424,235 390,235 C387.238576,235 385,237.238576 385,240 C385,242.761424 387.238576,245 390,245 Z M370,245 C372.761424,245 375,242.761424 375,240 C375,237.238576 372.761424,235 370,235 C367.238576,235 365,237.238576 365,240 C365,242.761424 367.238576,245 370,245 Z M350,245 C352.761424,245 355,242.761424 355,240 C355,237.238576 352.761424,235 350,235 C347.238576,235 345,237.238576 345,240 C345,242.761424 347.238576,245 350,245 Z M470,245 C472.761424,245 475,242.761424 475,240 C475,237.238576 472.761424,235 470,235 C467.238576,235 465,237.238576 465,240 C465,242.761424 467.238576,245 470,245 Z M450,245 C452.761424,245 455,242.761424 455,240 C455,237.238576 452.761424,235 450,235 C447.238576,235 445,237.238576 445,240 C445,242.761424 447.238576,245 450,245 Z M430,245 C432.761424,245 435,242.761424 435,240 C435,237.238576 432.761424,235 430,235 C427.238576,235 425,237.238576 425,240 C425,242.761424 427.238576,245 430,245 Z M410,265 C412.761424,265 415,262.761424 415,260 C415,257.238576 412.761424,255 410,255 C407.238576,255 405,257.238576 405,260 C405,262.761424 407.238576,265 410,265 Z M390,265 C392.761424,265 395,262.761424 395,260 C395,257.238576 392.761424,255 390,255 C387.238576,255 385,257.238576 385,260 C385,262.761424 387.238576,265 390,265 Z M370,265 C372.761424,265 375,262.761424 375,260 C375,257.238576 372.761424,255 370,255 C367.238576,255 365,257.238576 365,260 C365,262.761424 367.238576,265 370,265 Z M350,265 C352.761424,265 355,262.761424 355,260 C355,257.238576 352.761424,255 350,255 C347.238576,255 345,257.238576 345,260 C345,262.761424 347.238576,265 350,265 Z M490,265 C492.761424,265 495,262.761424 495,260 C495,257.238576 492.761424,255 490,255 C487.238576,255 485,257.238576 485,260 C485,262.761424 487.238576,265 490,265 Z M470,265 C472.761424,265 475,262.761424 475,260 C475,257.238576 472.761424,255 470,255 C467.238576,255 465,257.238576 465,260 C465,262.761424 467.238576,265 470,265 Z M450,265 C452.761424,265 455,262.761424 455,260 C455,257.238576 452.761424,255 450,255 C447.238576,255 445,257.238576 445,260 C445,262.761424 447.238576,265 450,265 Z M430,265 C432.761424,265 435,262.761424 435,260 C435,257.238576 432.761424,255 430,255 C427.238576,255 425,257.238576 425,260 C425,262.761424 427.238576,265 430,265 Z M410,285 C412.761424,285 415,282.761424 415,280 C415,277.238576 412.761424,275 410,275 C407.238576,275 405,277.238576 405,280 C405,282.761424 407.238576,285 410,285 Z M490,285 C492.761424,285 495,282.761424 495,280 C495,277.238576 492.761424,275 490,275 C487.238576,275 485,277.238576 485,280 C485,282.761424 487.238576,285 490,285 Z M470,285 C472.761424,285 475,282.761424 475,280 C475,277.238576 472.761424,275 470,275 C467.238576,275 465,277.238576 465,280 C465,282.761424 467.238576,285 470,285 Z M450,285 C452.761424,285 455,282.761424 455,280 C455,277.238576 452.761424,275 450,275 C447.238576,275 445,277.238576 445,280 C445,282.761424 447.238576,285 450,285 Z M430,285 C432.761424,285 435,282.761424 435,280 C435,277.238576 432.761424,275 430,275 C427.238576,275 425,277.238576 425,280 C425,282.761424 427.238576,285 430,285 Z M510,285 C512.761424,285 515,282.761424 515,280 C515,277.238576 512.761424,275 510,275 C507.238576,275 505,277.238576 505,280 C505,282.761424 507.238576,285 510,285 Z M490,305 C492.761424,305 495,302.761424 495,300 C495,297.238576 492.761424,295 490,295 C487.238576,295 485,297.238576 485,300 C485,302.761424 487.238576,305 490,305 Z M470,305 C472.761424,305 475,302.761424 475,300 C475,297.238576 472.761424,295 470,295 C467.238576,295 465,297.238576 465,300 C465,302.761424 467.238576,305 470,305 Z M450,305 C452.761424,305 455,302.761424 455,300 C455,297.238576 452.761424,295 450,295 C447.238576,295 445,297.238576 445,300 C445,302.761424 447.238576,305 450,305 Z M430,305 C432.761424,305 435,302.761424 435,300 C435,297.238576 432.761424,295 430,295 C427.238576,295 425,297.238576 425,300 C425,302.761424 427.238576,305 430,305 Z M510,305 C512.761424,305 515,302.761424 515,300 C515,297.238576 512.761424,295 510,295 C507.238576,295 505,297.238576 505,300 C505,302.761424 507.238576,305 510,305 Z M490,325 C492.761424,325 495,322.761424 495,320 C495,317.238576 492.761424,315 490,315 C487.238576,315 485,317.238576 485,320 C485,322.761424 487.238576,325 490,325 Z M470,325 C472.761424,325 475,322.761424 475,320 C475,317.238576 472.761424,315 470,315 C467.238576,315 465,317.238576 465,320 C465,322.761424 467.238576,325 470,325 Z M450,325 C452.761424,325 455,322.761424 455,320 C455,317.238576 452.761424,315 450,315 C447.238576,315 445,317.238576 445,320 C445,322.761424 447.238576,325 450,325 Z M530,325 C532.761424,325 535,322.761424 535,320 C535,317.238576 532.761424,315 530,315 C527.238576,315 525,317.238576 525,320 C525,322.761424 527.238576,325 530,325 Z M510,325 C512.761424,325 515,322.761424 515,320 C515,317.238576 512.761424,315 510,315 C507.238576,315 505,317.238576 505,320 C505,322.761424 507.238576,325 510,325 Z M490,345 C492.761424,345 495,342.761424 495,340 C495,337.238576 492.761424,335 490,335 C487.238576,335 485,337.238576 485,340 C485,342.761424 487.238576,345 490,345 Z M470,345 C472.761424,345 475,342.761424 475,340 C475,337.238576 472.761424,335 470,335 C467.238576,335 465,337.238576 465,340 C465,342.761424 467.238576,345 470,345 Z M530,345 C532.761424,345 535,342.761424 535,340 C535,337.238576 532.761424,335 530,335 C527.238576,335 525,337.238576 525,340 C525,342.761424 527.238576,345 530,345 Z M510,345 C512.761424,345 515,342.761424 515,340 C515,337.238576 512.761424,335 510,335 C507.238576,335 505,337.238576 505,340 C505,342.761424 507.238576,345 510,345 Z M490,365 C492.761424,365 495,362.761424 495,360 C495,357.238576 492.761424,355 490,355 C487.238576,355 485,357.238576 485,360 C485,362.761424 487.238576,365 490,365 Z M470,365 C472.761424,365 475,362.761424 475,360 C475,357.238576 472.761424,355 470,355 C467.238576,355 465,357.238576 465,360 C465,362.761424 467.238576,365 470,365 Z M530,365 C532.761424,365 535,362.761424 535,360 C535,357.238576 532.761424,355 530,355 C527.238576,355 525,357.238576 525,360 C525,362.761424 527.238576,365 530,365 Z M510,365 C512.761424,365 515,362.761424 515,360 C515,357.238576 512.761424,355 510,355 C507.238576,355 505,357.238576 505,360 C505,362.761424 507.238576,365 510,365 Z M490,385 C492.761424,385 495,382.761424 495,380 C495,377.238576 492.761424,375 490,375 C487.238576,375 485,377.238576 485,380 C485,382.761424 487.238576,385 490,385 Z M470,385 C472.761424,385 475,382.761424 475,380 C475,377.238576 472.761424,375 470,375 C467.238576,375 465,377.238576 465,380 C465,382.761424 467.238576,385 470,385 Z M530,385 C532.761424,385 535,382.761424 535,380 C535,377.238576 532.761424,375 530,375 C527.238576,375 525,377.238576 525,380 C525,382.761424 527.238576,385 530,385 Z M510,385 C512.761424,385 515,382.761424 515,380 C515,377.238576 512.761424,375 510,375 C507.238576,375 505,377.238576 505,380 C505,382.761424 507.238576,385 510,385 Z M490,405 C492.761424,405 495,402.761424 495,400 C495,397.238576 492.761424,395 490,395 C487.238576,395 485,397.238576 485,400 C485,402.761424 487.238576,405 490,405 Z M470,405 C472.761424,405 475,402.761424 475,400 C475,397.238576 472.761424,395 470,395 C467.238576,395 465,397.238576 465,400 C465,402.761424 467.238576,405 470,405 Z M530,405 C532.761424,405 535,402.761424 535,400 C535,397.238576 532.761424,395 530,395 C527.238576,395 525,397.238576 525,400 C525,402.761424 527.238576,405 530,405 Z M510,405 C512.761424,405 515,402.761424 515,400 C515,397.238576 512.761424,395 510,395 C507.238576,395 505,397.238576 505,400 C505,402.761424 507.238576,405 510,405 Z M490,425 C492.761424,425 495,422.761424 495,420 C495,417.238576 492.761424,415 490,415 C487.238576,415 485,417.238576 485,420 C485,422.761424 487.238576,425 490,425 Z M470,425 C472.761424,425 475,422.761424 475,420 C475,417.238576 472.761424,415 470,415 C467.238576,415 465,417.238576 465,420 C465,422.761424 467.238576,425 470,425 Z M530,425 C532.761424,425 535,422.761424 535,420 C535,417.238576 532.761424,415 530,415 C527.238576,415 525,417.238576 525,420 C525,422.761424 527.238576,425 530,425 Z M510,425 C512.761424,425 515,422.761424 515,420 C515,417.238576 512.761424,415 510,415 C507.238576,415 505,417.238576 505,420 C505,422.761424 507.238576,425 510,425 Z M490,445 C492.761424,445 495,442.761424 495,440 C495,437.238576 492.761424,435 490,435 C487.238576,435 485,437.238576 485,440 C485,442.761424 487.238576,445 490,445 Z M470,445 C472.761424,445 475,442.761424 475,440 C475,437.238576 472.761424,435 470,435 C467.238576,435 465,437.238576 465,440 C465,442.761424 467.238576,445 470,445 Z M530,445 C532.761424,445 535,442.761424 535,440 C535,437.238576 532.761424,435 530,435 C527.238576,435 525,437.238576 525,440 C525,442.761424 527.238576,445 530,445 Z M510,445 C512.761424,445 515,442.761424 515,440 C515,437.238576 512.761424,435 510,435 C507.238576,435 505,437.238576 505,440 C505,442.761424 507.238576,445 510,445 Z M490,465 C492.761424,465 495,462.761424 495,460 C495,457.238576 492.761424,455 490,455 C487.238576,455 485,457.238576 485,460 C485,462.761424 487.238576,465 490,465 Z M470,465 C472.761424,465 475,462.761424 475,460 C475,457.238576 472.761424,455 470,455 C467.238576,455 465,457.238576 465,460 C465,462.761424 467.238576,465 470,465 Z M530,465 C532.761424,465 535,462.761424 535,460 C535,457.238576 532.761424,455 530,455 C527.238576,455 525,457.238576 525,460 C525,462.761424 527.238576,465 530,465 Z M510,465 C512.761424,465 515,462.761424 515,460 C515,457.238576 512.761424,455 510,455 C507.238576,455 505,457.238576 505,460 C505,462.761424 507.238576,465 510,465 Z" id="Oval-24" opacity="0.4" fill="#FFFFFF" sketch:type="MSShapeGroup" mask="url(#mask-4)"></path>
            <g id="Segments" transform="translate(0.000000, 108.000000)">
                <mask id="mask-6" sketch:name="Oval 1" fill="white">
                    <use xlink:href="#path-5"></use>
                </mask>
                <use id="Oval-1" opacity="0" fill="#FF7F0E" sketch:type="MSShapeGroup" xlink:href="#path-5"></use>
                <path d="M490.5,311.721825 L482.721825,319.5 L490.5,327.278175 L498.278175,319.5 L490.5,311.721825 Z M510.5,311.721825 L502.721825,319.5 L510.5,327.278175 L518.278175,319.5 L510.5,311.721825 Z M530.5,311.721825 L522.721825,319.5 L530.5,327.278175 L538.278175,319.5 L530.5,311.721825 Z M550.5,311.721825 L542.721825,319.5 L550.5,327.278175 L558.278175,319.5 L550.5,311.721825 Z M470.5,331.721825 L462.721825,339.5 L470.5,347.278175 L478.278175,339.5 L470.5,331.721825 Z M490.5,331.721825 L482.721825,339.5 L490.5,347.278175 L498.278175,339.5 L490.5,331.721825 Z M510.5,331.721825 L502.721825,339.5 L510.5,347.278175 L518.278175,339.5 L510.5,331.721825 Z M530.5,331.721825 L522.721825,339.5 L530.5,347.278175 L538.278175,339.5 L530.5,331.721825 Z M550.5,331.721825 L542.721825,339.5 L550.5,347.278175 L558.278175,339.5 L550.5,331.721825 Z M470.5,351.721825 L462.721825,359.5 L470.5,367.278175 L478.278175,359.5 L470.5,351.721825 Z M450.5,351.721825 L442.721825,359.5 L450.5,367.278175 L458.278175,359.5 L450.5,351.721825 Z M450.5,371.721825 L442.721825,379.5 L450.5,387.278175 L458.278175,379.5 L450.5,371.721825 Z M450.5,391.721825 L442.721825,399.5 L450.5,407.278175 L458.278175,399.5 L450.5,391.721825 Z M450.5,411.721825 L442.721825,419.5 L450.5,427.278175 L458.278175,419.5 L450.5,411.721825 Z M450.5,431.721825 L442.721825,439.5 L450.5,447.278175 L458.278175,439.5 L450.5,431.721825 Z M430.5,431.721825 L422.721825,439.5 L430.5,447.278175 L438.278175,439.5 L430.5,431.721825 Z M430.5,411.721825 L422.721825,419.5 L430.5,427.278175 L438.278175,419.5 L430.5,411.721825 Z M430.5,391.721825 L422.721825,399.5 L430.5,407.278175 L438.278175,399.5 L430.5,391.721825 Z M430.5,371.721825 L422.721825,379.5 L430.5,387.278175 L438.278175,379.5 L430.5,371.721825 Z M430.5,351.721825 L422.721825,359.5 L430.5,367.278175 L438.278175,359.5 L430.5,351.721825 Z M490.5,351.721825 L482.721825,359.5 L490.5,367.278175 L498.278175,359.5 L490.5,351.721825 Z M510.5,351.721825 L502.721825,359.5 L510.5,367.278175 L518.278175,359.5 L510.5,351.721825 Z M530.5,351.721825 L522.721825,359.5 L530.5,367.278175 L538.278175,359.5 L530.5,351.721825 Z M470.5,371.721825 L462.721825,379.5 L470.5,387.278175 L478.278175,379.5 L470.5,371.721825 Z M490.5,371.721825 L482.721825,379.5 L490.5,387.278175 L498.278175,379.5 L490.5,371.721825 Z M510.5,371.721825 L502.721825,379.5 L510.5,387.278175 L518.278175,379.5 L510.5,371.721825 Z M530.5,371.721825 L522.721825,379.5 L530.5,387.278175 L538.278175,379.5 L530.5,371.721825 Z M470.5,391.721825 L462.721825,399.5 L470.5,407.278175 L478.278175,399.5 L470.5,391.721825 Z M490.5,391.721825 L482.721825,399.5 L490.5,407.278175 L498.278175,399.5 L490.5,391.721825 Z M510.5,391.721825 L502.721825,399.5 L510.5,407.278175 L518.278175,399.5 L510.5,391.721825 Z M530.5,391.721825 L522.721825,399.5 L530.5,407.278175 L538.278175,399.5 L530.5,391.721825 Z M470.5,411.721825 L462.721825,419.5 L470.5,427.278175 L478.278175,419.5 L470.5,411.721825 Z M490.5,411.721825 L482.721825,419.5 L490.5,427.278175 L498.278175,419.5 L490.5,411.721825 Z M510.5,411.721825 L502.721825,419.5 L510.5,427.278175 L518.278175,419.5 L510.5,411.721825 Z M530.5,411.721825 L522.721825,419.5 L530.5,427.278175 L538.278175,419.5 L530.5,411.721825 Z M550.5,411.721825 L542.721825,419.5 L550.5,427.278175 L558.278175,419.5 L550.5,411.721825 Z M470.5,431.721825 L462.721825,439.5 L470.5,447.278175 L478.278175,439.5 L470.5,431.721825 Z M490.5,431.721825 L482.721825,439.5 L490.5,447.278175 L498.278175,439.5 L490.5,431.721825 Z M510.5,431.721825 L502.721825,439.5 L510.5,447.278175 L518.278175,439.5 L510.5,431.721825 Z M530.5,431.721825 L522.721825,439.5 L530.5,447.278175 L538.278175,439.5 L530.5,431.721825 Z M550.5,431.721825 L542.721825,439.5 L550.5,447.278175 L558.278175,439.5 L550.5,431.721825 Z M490.5,451.721825 L482.721825,459.5 L490.5,467.278175 L498.278175,459.5 L490.5,451.721825 Z M510.5,451.721825 L502.721825,459.5 L510.5,467.278175 L518.278175,459.5 L510.5,451.721825 Z M530.5,451.721825 L522.721825,459.5 L530.5,467.278175 L538.278175,459.5 L530.5,451.721825 Z M490.5,471.721825 L482.721825,479.5 L490.5,487.278175 L498.278175,479.5 L490.5,471.721825 Z M510.5,471.721825 L502.721825,479.5 L510.5,487.278175 L518.278175,479.5 L510.5,471.721825 Z" id="Rectangle-50-copy" opacity="0.4" fill="#FFFFFF" sketch:type="MSShapeGroup" mask="url(#mask-6)"></path>
                <mask id="mask-8" sketch:name="Oval 1 copy 3" fill="white">
                    <use xlink:href="#path-7"></use>
                </mask>
                <use id="Oval-1-copy-3" opacity="0" fill="#D62728" sketch:type="MSShapeGroup" xlink:href="#path-7"></use>
                <path d="M350,417 C352.761424,417 355,414.761424 355,412 C355,409.238576 352.761424,407 350,407 C347.238576,407 345,409.238576 345,412 C345,414.761424 347.238576,417 350,417 Z M330,417 C332.761424,417 335,414.761424 335,412 C335,409.238576 332.761424,407 330,407 C327.238576,407 325,409.238576 325,412 C325,414.761424 327.238576,417 330,417 Z M370,417 C372.761424,417 375,414.761424 375,412 C375,409.238576 372.761424,407 370,407 C367.238576,407 365,409.238576 365,412 C365,414.761424 367.238576,417 370,417 Z M350,437 C352.761424,437 355,434.761424 355,432 C355,429.238576 352.761424,427 350,427 C347.238576,427 345,429.238576 345,432 C345,434.761424 347.238576,437 350,437 Z M330,437 C332.761424,437 335,434.761424 335,432 C335,429.238576 332.761424,427 330,427 C327.238576,427 325,429.238576 325,432 C325,434.761424 327.238576,437 330,437 Z M370,437 C372.761424,437 375,434.761424 375,432 C375,429.238576 372.761424,427 370,427 C367.238576,427 365,429.238576 365,432 C365,434.761424 367.238576,437 370,437 Z M350,457 C352.761424,457 355,454.761424 355,452 C355,449.238576 352.761424,447 350,447 C347.238576,447 345,449.238576 345,452 C345,454.761424 347.238576,457 350,457 Z M330,457 C332.761424,457 335,454.761424 335,452 C335,449.238576 332.761424,447 330,447 C327.238576,447 325,449.238576 325,452 C325,454.761424 327.238576,457 330,457 Z M390,457 C392.761424,457 395,454.761424 395,452 C395,449.238576 392.761424,447 390,447 C387.238576,447 385,449.238576 385,452 C385,454.761424 387.238576,457 390,457 Z M370,457 C372.761424,457 375,454.761424 375,452 C375,449.238576 372.761424,447 370,447 C367.238576,447 365,449.238576 365,452 C365,454.761424 367.238576,457 370,457 Z M350,477 C352.761424,477 355,474.761424 355,472 C355,469.238576 352.761424,467 350,467 C347.238576,467 345,469.238576 345,472 C345,474.761424 347.238576,477 350,477 Z M330,477 C332.761424,477 335,474.761424 335,472 C335,469.238576 332.761424,467 330,467 C327.238576,467 325,469.238576 325,472 C325,474.761424 327.238576,477 330,477 Z M390,477 C392.761424,477 395,474.761424 395,472 C395,469.238576 392.761424,467 390,467 C387.238576,467 385,469.238576 385,472 C385,474.761424 387.238576,477 390,477 Z M370,477 C372.761424,477 375,474.761424 375,472 C375,469.238576 372.761424,467 370,467 C367.238576,467 365,469.238576 365,472 C365,474.761424 367.238576,477 370,477 Z M310,417 C312.761424,417 315,414.761424 315,412 C315,409.238576 312.761424,407 310,407 C307.238576,407 305,409.238576 305,412 C305,414.761424 307.238576,417 310,417 Z M310,437 C312.761424,437 315,434.761424 315,432 C315,429.238576 312.761424,427 310,427 C307.238576,427 305,429.238576 305,432 C305,434.761424 307.238576,437 310,437 Z M310,457 C312.761424,457 315,454.761424 315,452 C315,449.238576 312.761424,447 310,447 C307.238576,447 305,449.238576 305,452 C305,454.761424 307.238576,457 310,457 Z M310,477 C312.761424,477 315,474.761424 315,472 C315,469.238576 312.761424,467 310,467 C307.238576,467 305,469.238576 305,472 C305,474.761424 307.238576,477 310,477 Z M290,417 C292.761424,417 295,414.761424 295,412 C295,409.238576 292.761424,407 290,407 C287.238576,407 285,409.238576 285,412 C285,414.761424 287.238576,417 290,417 Z M290,437 C292.761424,437 295,434.761424 295,432 C295,429.238576 292.761424,427 290,427 C287.238576,427 285,429.238576 285,432 C285,434.761424 287.238576,437 290,437 Z M290,457 C292.761424,457 295,454.761424 295,452 C295,449.238576 292.761424,447 290,447 C287.238576,447 285,449.238576 285,452 C285,454.761424 287.238576,457 290,457 Z M290,477 C292.761424,477 295,474.761424 295,472 C295,469.238576 292.761424,467 290,467 C287.238576,467 285,469.238576 285,472 C285,474.761424 287.238576,477 290,477 Z M270,417 C272.761424,417 275,414.761424 275,412 C275,409.238576 272.761424,407 270,407 C267.238576,407 265,409.238576 265,412 C265,414.761424 267.238576,417 270,417 Z M270,437 C272.761424,437 275,434.761424 275,432 C275,429.238576 272.761424,427 270,427 C267.238576,427 265,429.238576 265,432 C265,434.761424 267.238576,437 270,437 Z M270,457 C272.761424,457 275,454.761424 275,452 C275,449.238576 272.761424,447 270,447 C267.238576,447 265,449.238576 265,452 C265,454.761424 267.238576,457 270,457 Z M270,477 C272.761424,477 275,474.761424 275,472 C275,469.238576 272.761424,467 270,467 C267.238576,467 265,469.238576 265,472 C265,474.761424 267.238576,477 270,477 Z M270,397 C272.761424,397 275,394.761424 275,392 C275,389.238576 272.761424,387 270,387 C267.238576,387 265,389.238576 265,392 C265,394.761424 267.238576,397 270,397 Z M250,437 C252.761424,437 255,434.761424 255,432 C255,429.238576 252.761424,427 250,427 C247.238576,427 245,429.238576 245,432 C245,434.761424 247.238576,437 250,437 Z M250,457 C252.761424,457 255,454.761424 255,452 C255,449.238576 252.761424,447 250,447 C247.238576,447 245,449.238576 245,452 C245,454.761424 247.238576,457 250,457 Z" id="Oval-24-copy" opacity="0.4" fill="#FFFFFF" sketch:type="MSShapeGroup" mask="url(#mask-8)"></path>
                <mask id="mask-10" sketch:name="Pattern Mask copy" fill="white">
                    <use xlink:href="#path-9"></use>
                </mask>
                <use id="Pattern-Mask-copy" opacity="0" fill="#8C564B" sketch:type="MSShapeGroup" xlink:href="#path-9"></use>
                <path d="M161,430 L171,440 L171,430 L161,430 Z M161,450 L171,460 L171,450 L161,450 Z M181,450 L191,460 L191,450 L181,450 Z M261,450 L271,460 L271,450 L261,450 Z M241,450 L251,460 L251,450 L241,450 Z M221,450 L231,460 L231,450 L221,450 Z M201,450 L211,460 L211,450 L201,450 Z M181,430 L191,440 L191,430 L181,430 Z M261,430 L271,440 L271,430 L261,430 Z M241,430 L251,440 L251,430 L241,430 Z M221,430 L231,440 L231,430 L221,430 Z M201,430 L211,440 L211,430 L201,430 Z M161,410 L171,420 L171,410 L161,410 Z M181,410 L191,420 L191,410 L181,410 Z M261,410 L271,420 L271,410 L261,410 Z M241,410 L251,420 L251,410 L241,410 Z M221,410 L231,420 L231,410 L221,410 Z M201,410 L211,420 L211,410 L201,410 Z M161,350 L171,360 L171,350 L161,350 Z M181,350 L191,360 L191,350 L181,350 Z M261,350 L271,360 L271,350 L261,350 Z M241,350 L251,360 L251,350 L241,350 Z M221,350 L231,360 L231,350 L221,350 Z M201,350 L211,360 L211,350 L201,350 Z M161,370 L171,380 L171,370 L161,370 Z M181,370 L191,380 L191,370 L181,370 Z M261,370 L271,380 L271,370 L261,370 Z M241,370 L251,380 L251,370 L241,370 Z M221,370 L231,380 L231,370 L221,370 Z M201,370 L211,380 L211,370 L201,370 Z M161,390 L171,400 L171,390 L161,390 Z M181,390 L191,400 L191,390 L181,390 Z M261,390 L271,400 L271,390 L261,390 Z M241,390 L251,400 L251,390 L241,390 Z M221,390 L231,400 L231,390 L221,390 Z M201,390 L211,400 L211,390 L201,390 Z" id="Rectangle-407-copy-9" opacity="0.4" fill="#FFFFFF" sketch:type="MSShapeGroup" mask="url(#mask-10)"></path>
                <mask id="mask-12" sketch:name="Pattern Mask" fill="white">
                    <use xlink:href="#path-11"></use>
                </mask>
                <use id="Pattern-Mask" opacity="0" fill="#8C564B" sketch:type="MSShapeGroup" xlink:href="#path-11"></use>
                <path d="M166.5,215.721825 L158.721825,223.5 L166.5,231.278175 L174.278175,223.5 L166.5,215.721825 Z M186.5,215.721825 L178.721825,223.5 L186.5,231.278175 L194.278175,223.5 L186.5,215.721825 Z M206.5,215.721825 L198.721825,223.5 L206.5,231.278175 L214.278175,223.5 L206.5,215.721825 Z M226.5,215.721825 L218.721825,223.5 L226.5,231.278175 L234.278175,223.5 L226.5,215.721825 Z M146.5,235.721825 L138.721825,243.5 L146.5,251.278175 L154.278175,243.5 L146.5,235.721825 Z M166.5,235.721825 L158.721825,243.5 L166.5,251.278175 L174.278175,243.5 L166.5,235.721825 Z M186.5,235.721825 L178.721825,243.5 L186.5,251.278175 L194.278175,243.5 L186.5,235.721825 Z M206.5,235.721825 L198.721825,243.5 L206.5,251.278175 L214.278175,243.5 L206.5,235.721825 Z M226.5,235.721825 L218.721825,243.5 L226.5,251.278175 L234.278175,243.5 L226.5,235.721825 Z M146.5,255.721825 L138.721825,263.5 L146.5,271.278175 L154.278175,263.5 L146.5,255.721825 Z M166.5,255.721825 L158.721825,263.5 L166.5,271.278175 L174.278175,263.5 L166.5,255.721825 Z M186.5,255.721825 L178.721825,263.5 L186.5,271.278175 L194.278175,263.5 L186.5,255.721825 Z M206.5,255.721825 L198.721825,263.5 L206.5,271.278175 L214.278175,263.5 L206.5,255.721825 Z M146.5,275.721825 L138.721825,283.5 L146.5,291.278175 L154.278175,283.5 L146.5,275.721825 Z M166.5,275.721825 L158.721825,283.5 L166.5,291.278175 L174.278175,283.5 L166.5,275.721825 Z M186.5,275.721825 L178.721825,283.5 L186.5,291.278175 L194.278175,283.5 L186.5,275.721825 Z M206.5,275.721825 L198.721825,283.5 L206.5,291.278175 L214.278175,283.5 L206.5,275.721825 Z M146.5,295.721825 L138.721825,303.5 L146.5,311.278175 L154.278175,303.5 L146.5,295.721825 Z M166.5,295.721825 L158.721825,303.5 L166.5,311.278175 L174.278175,303.5 L166.5,295.721825 Z M186.5,295.721825 L178.721825,303.5 L186.5,311.278175 L194.278175,303.5 L186.5,295.721825 Z M206.5,295.721825 L198.721825,303.5 L206.5,311.278175 L214.278175,303.5 L206.5,295.721825 Z M146.5,315.721825 L138.721825,323.5 L146.5,331.278175 L154.278175,323.5 L146.5,315.721825 Z M166.5,315.721825 L158.721825,323.5 L166.5,331.278175 L174.278175,323.5 L166.5,315.721825 Z M186.5,315.721825 L178.721825,323.5 L186.5,331.278175 L194.278175,323.5 L186.5,315.721825 Z M206.5,315.721825 L198.721825,323.5 L206.5,331.278175 L214.278175,323.5 L206.5,315.721825 Z M226.5,315.721825 L218.721825,323.5 L226.5,331.278175 L234.278175,323.5 L226.5,315.721825 Z M146.5,335.721825 L138.721825,343.5 L146.5,351.278175 L154.278175,343.5 L146.5,335.721825 Z M166.5,335.721825 L158.721825,343.5 L166.5,351.278175 L174.278175,343.5 L166.5,335.721825 Z M186.5,335.721825 L178.721825,343.5 L186.5,351.278175 L194.278175,343.5 L186.5,335.721825 Z M206.5,335.721825 L198.721825,343.5 L206.5,351.278175 L214.278175,343.5 L206.5,335.721825 Z M226.5,335.721825 L218.721825,343.5 L226.5,351.278175 L234.278175,343.5 L226.5,335.721825 Z M166.5,355.721825 L158.721825,363.5 L166.5,371.278175 L174.278175,363.5 L166.5,355.721825 Z M186.5,355.721825 L178.721825,363.5 L186.5,371.278175 L194.278175,363.5 L186.5,355.721825 Z M206.5,355.721825 L198.721825,363.5 L206.5,371.278175 L214.278175,363.5 L206.5,355.721825 Z M166.5,375.721825 L158.721825,383.5 L166.5,391.278175 L174.278175,383.5 L166.5,375.721825 Z M186.5,375.721825 L178.721825,383.5 L186.5,391.278175 L194.278175,383.5 L186.5,375.721825 Z" id="Rectangle-50" opacity="0.4" fill="#FFFFFF" sketch:type="MSShapeGroup" mask="url(#mask-12)"></path>
                <mask id="mask-14" sketch:name="Oval 1 copy 6" fill="white">
                    <use xlink:href="#path-13"></use>
                </mask>
                <use id="Oval-1-copy-6" opacity="0" fill="#E377C2" sketch:type="MSShapeGroup" xlink:href="#path-13"></use>
                <path d="M235,134 L235,144 L245,144 L245,134 L235,134 Z M215,134 L215,144 L225,144 L225,134 L215,134 Z M235,154 L235,164 L245,164 L245,154 L235,154 Z M215,154 L215,164 L225,164 L225,154 L215,154 Z M195,154 L195,164 L205,164 L205,154 L195,154 Z M195,134 L195,144 L205,144 L205,134 L195,134 Z M175,214 L175,224 L185,224 L185,214 L175,214 Z M155,214 L155,224 L165,224 L165,214 L155,214 Z M155,194 L155,204 L165,204 L165,194 L155,194 Z M235,114 L235,124 L245,124 L245,114 L235,114 Z M255,114 L255,124 L265,124 L265,114 L255,114 Z M255,174 L255,184 L265,184 L265,174 L255,174 Z M235,174 L235,184 L245,184 L245,174 L235,174 Z M215,174 L215,184 L225,184 L225,174 L215,174 Z M195,174 L195,184 L205,184 L205,174 L195,174 Z M255,194 L255,204 L265,204 L265,194 L255,194 Z M235,194 L235,204 L245,204 L245,194 L235,194 Z M215,194 L215,204 L225,204 L225,194 L215,194 Z M195,194 L195,204 L205,204 L205,194 L195,194 Z M215,214 L215,224 L225,224 L225,214 L215,214 Z M195,214 L195,224 L205,224 L205,214 L195,214 Z M235,214 L235,224 L245,224 L245,214 L235,214 Z M255,214 L255,224 L265,224 L265,214 L255,214 Z M255,154 L255,164 L265,164 L265,154 L255,154 Z M255,134 L255,144 L265,144 L265,134 L255,134 Z M275,134 L275,144 L285,144 L285,134 L275,134 Z M275,154 L275,164 L285,164 L285,154 L275,154 Z M215,234 L215,244 L225,244 L225,234 L215,234 Z M195,234 L195,244 L205,244 L205,234 L195,234 Z M175,194 L175,204 L185,204 L185,194 L175,194 Z M175,174 L175,184 L185,184 L185,174 L175,174 Z M175,154 L175,164 L185,164 L185,154 L175,154 Z M215,114 L215,124 L225,124 L225,114 L215,114 Z" id="Rectangle-34-copy" opacity="0.4" fill="#FFFFFF" sketch:type="MSShapeGroup" mask="url(#mask-14)"></path>
                <mask id="mask-16" sketch:name="Oval 1 copy 7" fill="white">
                    <use xlink:href="#path-15"></use>
                </mask>
                <use id="Oval-1-copy-7" opacity="0" fill="#E377C2" sketch:type="MSShapeGroup" xlink:href="#path-15"></use>
                <path d="M299.5,43.7218254 L291.721825,51.5 L299.5,59.2781746 L307.278175,51.5 L299.5,43.7218254 Z M319.5,43.7218254 L311.721825,51.5 L319.5,59.2781746 L327.278175,51.5 L319.5,43.7218254 Z M339.5,43.7218254 L331.721825,51.5 L339.5,59.2781746 L347.278175,51.5 L339.5,43.7218254 Z M359.5,43.7218254 L351.721825,51.5 L359.5,59.2781746 L367.278175,51.5 L359.5,43.7218254 Z M279.5,63.7218254 L271.721825,71.5 L279.5,79.2781746 L287.278175,71.5 L279.5,63.7218254 Z M299.5,63.7218254 L291.721825,71.5 L299.5,79.2781746 L307.278175,71.5 L299.5,63.7218254 Z M319.5,63.7218254 L311.721825,71.5 L319.5,79.2781746 L327.278175,71.5 L319.5,63.7218254 Z M339.5,63.7218254 L331.721825,71.5 L339.5,79.2781746 L347.278175,71.5 L339.5,63.7218254 Z M359.5,63.7218254 L351.721825,71.5 L359.5,79.2781746 L367.278175,71.5 L359.5,63.7218254 Z M279.5,83.7218254 L271.721825,91.5 L279.5,99.2781746 L287.278175,91.5 L279.5,83.7218254 Z M259.5,83.7218254 L251.721825,91.5 L259.5,99.2781746 L267.278175,91.5 L259.5,83.7218254 Z M259.5,103.721825 L251.721825,111.5 L259.5,119.278175 L267.278175,111.5 L259.5,103.721825 Z M259.5,123.721825 L251.721825,131.5 L259.5,139.278175 L267.278175,131.5 L259.5,123.721825 Z M259.5,143.721825 L251.721825,151.5 L259.5,159.278175 L267.278175,151.5 L259.5,143.721825 Z M259.5,163.721825 L251.721825,171.5 L259.5,179.278175 L267.278175,171.5 L259.5,163.721825 Z M239.5,163.721825 L231.721825,171.5 L239.5,179.278175 L247.278175,171.5 L239.5,163.721825 Z M239.5,143.721825 L231.721825,151.5 L239.5,159.278175 L247.278175,151.5 L239.5,143.721825 Z M239.5,123.721825 L231.721825,131.5 L239.5,139.278175 L247.278175,131.5 L239.5,123.721825 Z M239.5,103.721825 L231.721825,111.5 L239.5,119.278175 L247.278175,111.5 L239.5,103.721825 Z M239.5,83.7218254 L231.721825,91.5 L239.5,99.2781746 L247.278175,91.5 L239.5,83.7218254 Z M299.5,83.7218254 L291.721825,91.5 L299.5,99.2781746 L307.278175,91.5 L299.5,83.7218254 Z M319.5,83.7218254 L311.721825,91.5 L319.5,99.2781746 L327.278175,91.5 L319.5,83.7218254 Z M339.5,83.7218254 L331.721825,91.5 L339.5,99.2781746 L347.278175,91.5 L339.5,83.7218254 Z M279.5,103.721825 L271.721825,111.5 L279.5,119.278175 L287.278175,111.5 L279.5,103.721825 Z M299.5,103.721825 L291.721825,111.5 L299.5,119.278175 L307.278175,111.5 L299.5,103.721825 Z M319.5,103.721825 L311.721825,111.5 L319.5,119.278175 L327.278175,111.5 L319.5,103.721825 Z M339.5,103.721825 L331.721825,111.5 L339.5,119.278175 L347.278175,111.5 L339.5,103.721825 Z M279.5,123.721825 L271.721825,131.5 L279.5,139.278175 L287.278175,131.5 L279.5,123.721825 Z M299.5,123.721825 L291.721825,131.5 L299.5,139.278175 L307.278175,131.5 L299.5,123.721825 Z M319.5,123.721825 L311.721825,131.5 L319.5,139.278175 L327.278175,131.5 L319.5,123.721825 Z M339.5,123.721825 L331.721825,131.5 L339.5,139.278175 L347.278175,131.5 L339.5,123.721825 Z M279.5,143.721825 L271.721825,151.5 L279.5,159.278175 L287.278175,151.5 L279.5,143.721825 Z M299.5,143.721825 L291.721825,151.5 L299.5,159.278175 L307.278175,151.5 L299.5,143.721825 Z M319.5,143.721825 L311.721825,151.5 L319.5,159.278175 L327.278175,151.5 L319.5,143.721825 Z M339.5,143.721825 L331.721825,151.5 L339.5,159.278175 L347.278175,151.5 L339.5,143.721825 Z M359.5,143.721825 L351.721825,151.5 L359.5,159.278175 L367.278175,151.5 L359.5,143.721825 Z M279.5,163.721825 L271.721825,171.5 L279.5,179.278175 L287.278175,171.5 L279.5,163.721825 Z M299.5,163.721825 L291.721825,171.5 L299.5,179.278175 L307.278175,171.5 L299.5,163.721825 Z M319.5,163.721825 L311.721825,171.5 L319.5,179.278175 L327.278175,171.5 L319.5,163.721825 Z M339.5,163.721825 L331.721825,171.5 L339.5,179.278175 L347.278175,171.5 L339.5,163.721825 Z M359.5,163.721825 L351.721825,171.5 L359.5,179.278175 L367.278175,171.5 L359.5,163.721825 Z M299.5,183.721825 L291.721825,191.5 L299.5,199.278175 L307.278175,191.5 L299.5,183.721825 Z M319.5,183.721825 L311.721825,191.5 L319.5,199.278175 L327.278175,191.5 L319.5,183.721825 Z M339.5,183.721825 L331.721825,191.5 L339.5,199.278175 L347.278175,191.5 L339.5,183.721825 Z M299.5,203.721825 L291.721825,211.5 L299.5,219.278175 L307.278175,211.5 L299.5,203.721825 Z M319.5,203.721825 L311.721825,211.5 L319.5,219.278175 L327.278175,211.5 L319.5,203.721825 Z" id="Rectangle-50-copy-2" opacity="0.4" fill="#FFFFFF" sketch:type="MSShapeGroup" mask="url(#mask-16)"></path>
            </g>
            <g id="Legend-Patterned" transform="translate(587.000000, 197.000000)" fill="#FFFFFF" opacity="0.4" sketch:type="MSShapeGroup">
                <path d="M4,208.757359 L-0.242640687,213 L4,217.242641 L8.24264069,213 L4,208.757359 Z M12,216.757359 L7.75735931,221 L12,225.242641 L16.2426407,221 L12,216.757359 Z" id="Rectangle-143-copy"></path>
                <path d="M4.5,7 C6.43299672,7 8,5.43299672 8,3.5 C8,1.56700328 6.43299672,0 4.5,0 C2.56700328,0 1,1.56700328 1,3.5 C1,5.43299672 2.56700328,7 4.5,7 Z M11.5,14 C13.4329967,14 15,12.4329967 15,10.5 C15,8.56700328 13.4329967,7 11.5,7 C9.56700328,7 8,8.56700328 8,10.5 C8,12.4329967 9.56700328,14 11.5,14 Z" id="Oval-140"></path>
                <path d="M4.5,97 C6.43299672,97 8,95.4329967 8,93.5 C8,91.5670033 6.43299672,90 4.5,90 C2.56700328,90 1,91.5670033 1,93.5 C1,95.4329967 2.56700328,97 4.5,97 Z M11.5,104 C13.4329967,104 15,102.432997 15,100.5 C15,98.5670033 13.4329967,97 11.5,97 C9.56700328,97 8,98.5670033 8,100.5 C8,102.432997 9.56700328,104 11.5,104 Z" id="Oval-140-copy"></path>
                <path d="M4,148.757359 L-0.242640687,153 L4,157.242641 L8.24264069,153 L4,148.757359 Z M12,156.757359 L7.75735931,161 L12,165.242641 L16.2426407,161 L12,156.757359 Z" id="Rectangle-143"></path>
                <path d="M4,28.7573593 L-0.242640687,33 L4,37.2426407 L8.24264069,33 L4,28.7573593 Z M12,36.7573593 L7.75735931,41 L12,45.2426407 L16.2426407,41 L12,36.7573593 Z" id="Rectangle-143-copy"></path>
                <path d="M1,180 L1,186 L7,186 L7,180 L1,180 Z M9,188 L9,194 L15,194 L15,188 L9,188 Z" id="Rectangle-141-copy"></path>
                <path d="M6,122 L13,129 L13,122 L6,122 Z M1,127 L8,134 L8,127 L1,127 Z" id="Path-copy"></path>
            </g>
        </g>
    </g>
</svg>